<svg width="88" height="88" viewBox="0 0 88 88" fill="none" xmlns="http://www.w3.org/2000/svg">
<path d="M0 76.6532C0 82.9204 5.08028 88 11.3468 88H76.6528C82.9204 88 88 82.9197 88 76.6532V11.3472C88 5.07959 82.9197 0 76.6532 0H11.3472C5.07959 0 0 5.08028 0 11.3468V76.6528V76.6532Z" fill="#563D7C"/>
<path d="M36.4919 38.9256V26.4636H47.4613C48.5063 26.4636 49.5135 26.5506 50.4836 26.7248C51.4536 26.8988 52.312 27.2095 53.0583 27.6574C53.8042 28.1053 54.4013 28.7272 54.8492 29.523C55.2968 30.3191 55.5209 31.339 55.5209 32.5823C55.5209 34.8212 54.8492 36.4382 53.5058 37.433C52.1628 38.4282 50.4465 38.9256 48.3568 38.9256H36.4919ZM24.7759 17.3594V70.6406H50.5956C52.9837 70.6406 55.3095 70.3423 57.5731 69.7452C59.8367 69.1481 61.8514 68.2278 63.6176 66.9842C65.3834 65.7405 66.789 64.1358 67.8337 62.171C68.8787 60.2057 69.4008 57.8799 69.4008 55.1935C69.4008 51.8602 68.5923 49.0122 66.9757 46.6493C65.3587 44.286 62.9084 42.6319 59.6249 41.6866C62.013 40.5426 63.8166 39.0747 65.0356 37.2838C66.2542 35.4929 66.8636 33.2544 66.8636 30.5676C66.8636 28.0803 66.4532 25.9909 65.6323 24.2993C64.8114 22.6081 63.6547 21.2523 62.1622 20.2324C60.6699 19.2125 58.879 18.4786 56.7893 18.0311C54.7 17.5832 52.3866 17.3594 49.8494 17.3594H24.7759ZM36.4919 61.5364V46.9102H49.2523C51.7895 46.9102 53.8293 47.4946 55.3717 48.664C56.9138 49.8331 57.6852 51.7856 57.6852 54.5218C57.6852 55.9151 57.4487 57.0591 56.976 57.9545C56.5033 58.85 55.8691 59.5592 55.073 60.0813C54.2772 60.6038 53.3566 60.9768 52.312 61.2009C51.267 61.4243 50.1728 61.5364 49.0285 61.5364H36.4919Z" fill="white"/>
</svg>
