<svg width="75" height="105" viewBox="0 0 75 105" fill="none" xmlns="http://www.w3.org/2000/svg">
<g clip-path="url(#clip0)">
<path d="M75 20.635L68.1673 96.5547L37.4541 105L6.82545 96.5666L0 20.635H75Z" fill="#264DE4"/>
<path d="M62.3178 91.7204L68.1568 26.8435H37.5V98.5448L62.3178 91.7204Z" fill="#2965F1"/>
<path d="M15.647 55.0055L16.4885 64.3181H37.4998V55.0055H15.647Z" fill="#EBEBEB"/>
<path d="M37.5002 36.1562H37.4678H13.9565L14.8101 45.4691H37.5002V36.1562Z" fill="#EBEBEB"/>
<path d="M37.4999 88.8806V79.1915L37.4588 79.2023L27.002 76.4018L26.3335 68.9745H21.2523H16.9082L18.2236 83.5968L37.4567 88.8925L37.4999 88.8806Z" fill="#EBEBEB"/>
<path d="M17.6509 0H29.0229V4.7168H22.4064V9.43359H29.0229V14.1504H17.6509V0Z" fill="#FBFCD4"/>
<path d="M31.2974 0H42.6693V4.10156H36.0529V4.92188H42.6693V14.3555H31.2974V10.0488H37.9138V9.22852H31.2974V0Z" fill="#FBFCD4"/>
<path d="M44.9434 0H56.3153V4.10156H49.6989V4.92188H56.3153V14.3555H44.9434V10.0488H51.5598V9.22852H44.9434V0Z" fill="#FBFCD4"/>
<path d="M49.0295 64.318L47.9397 76.3959L37.4678 79.1993V88.888L56.7162 83.5968L56.8574 82.0234L59.0638 57.5061L59.2929 55.0054L60.9879 36.1562H37.4678V45.4691H50.6981L49.8438 55.0054H37.4678V64.318H49.0295Z" fill="white"/>
</g>
<defs>
<clipPath id="clip0">
<rect width="75" height="105" fill="white"/>
</clipPath>
</defs>
</svg>
