<svg width="73" height="102" viewBox="0 0 73 102" fill="none" xmlns="http://www.w3.org/2000/svg">
<path d="M47.9312 36.842L37.8194 46.3399L28.4331 27.2325L33.282 16.2461C34.5076 14.0545 36.5119 14.0256 37.7374 16.2461L47.9312 36.842Z" fill="#FFA000"/>
<path d="M37.8239 46.3358L0 81.8258L28.4376 27.2325L37.8239 46.3358Z" fill="#F57F17"/>
<path d="M59.0189 22.3161C60.8306 20.5753 62.6956 21.1624 63.1669 23.6351L73 81.3461L40.3857 101.099C39.2421 101.744 36.209 101.996 36.209 101.996C36.209 101.996 33.4505 101.657 32.393 101.07L0 81.8257L59.0189 22.3161Z" fill="#FFCA28"/>
<path d="M28.4376 27.233L0 81.8263L12.6736 2.03072C13.149 -0.441955 14.5385 -0.694184 15.7928 1.49732L28.4376 27.233Z" fill="#FFA000"/>
</svg>
