<svg width="130" height="55" viewBox="0 0 130 55" fill="none" xmlns="http://www.w3.org/2000/svg">
<path d="M77.6873 18.9459C74.8451 18.9459 72.7285 20.3449 72.7285 23.7122C72.7285 26.2491 74.1235 28.0106 77.534 28.0106C80.4249 28.0106 82.3887 26.3025 82.3887 23.6068C82.3887 20.5521 80.6316 18.9459 77.6873 18.9459ZM72.0049 42.7218C71.3321 43.5491 70.6617 44.4288 70.6617 45.4659C70.6617 47.5364 73.2953 48.1596 76.9129 48.1596C79.909 48.1596 83.9908 47.9488 83.9908 45.1558C83.9908 43.4956 82.0271 43.3933 79.5459 43.2375L72.0049 42.7218ZM87.2967 19.1022C88.2249 20.2935 89.2081 21.9517 89.2081 24.3338C89.2081 30.0826 84.7134 33.4489 78.2053 33.4489C76.5503 33.4489 75.0523 33.2422 74.1235 32.9836L72.4178 35.7276L77.4801 36.0382C86.4187 36.6094 91.6862 36.8691 91.6862 43.7548C91.6862 49.7123 86.4699 53.077 77.4801 53.077C68.1298 53.077 64.5649 50.6944 64.5649 46.6032C64.5649 44.2725 65.5983 43.0318 67.4067 41.3197C65.7014 40.5973 65.1337 39.3031 65.1337 37.9036C65.1337 36.7632 65.7014 35.7282 66.6328 34.743C67.5621 33.7604 68.5949 32.7753 69.835 31.6359C67.3041 30.3927 65.3917 27.6995 65.3917 23.8659C65.3917 17.9109 69.3186 13.8207 77.2212 13.8207C79.4433 13.8207 80.787 14.0254 81.9753 14.3385H92.0503V18.7392L87.2967 19.1022ZM101.139 9.69031C98.1938 9.69031 96.4891 7.97971 96.4891 5.02637C96.4891 2.0771 98.1933 0.469849 101.139 0.469849C104.135 0.469849 105.84 2.0771 105.84 5.02637C105.84 7.97971 104.136 9.69031 101.139 9.69031ZM94.4736 40.8157V36.726L97.1091 36.3645C97.8328 36.2602 97.9353 36.1054 97.9353 35.327V20.0995C97.9353 19.5314 97.781 19.1669 97.2625 19.0131L94.4736 18.028L95.0413 13.8339H105.736V35.327C105.736 36.1568 105.786 36.2602 106.564 36.3651L109.198 36.7265V40.8157H94.4736ZM129.628 38.8078C127.406 39.8947 124.151 40.8788 121.205 40.8788C115.058 40.8788 112.734 38.3954 112.734 32.5396V18.9714C112.734 18.6608 112.734 18.4536 112.319 18.4536H108.703V13.8426C113.251 13.3233 115.058 11.0445 115.626 5.39904H120.535V12.7557C120.535 13.1171 120.535 13.2734 120.948 13.2734H128.232V18.4526H120.535V30.8305C120.535 33.8862 121.259 35.0765 124.047 35.0765C125.495 35.0765 126.992 34.715 128.231 34.2487L129.628 38.8072" fill="#FBFCD4"/>
<path d="M53.081 25.2162L29.4596 1.536C29.1361 1.21158 28.752 0.954229 28.3293 0.778648C27.9066 0.603067 27.4535 0.512695 26.9959 0.512695C26.5384 0.512695 26.0853 0.603067 25.6626 0.778648C25.2399 0.954229 24.8558 1.21158 24.5323 1.536L19.6273 6.45399L25.8495 12.6916C26.5809 12.4422 27.3674 12.4032 28.1198 12.5789C28.8721 12.7546 29.5604 13.1381 30.1065 13.6859C30.6556 14.2371 31.039 14.932 31.2128 15.6913C31.3867 16.4506 31.344 17.2436 31.0897 17.9797L37.0854 23.9918C38.5362 23.4908 40.2105 23.8151 41.3688 24.9784C41.7539 25.3643 42.0594 25.8224 42.2678 26.3267C42.4763 26.8309 42.5835 27.3714 42.5835 27.9172C42.5835 28.4631 42.4763 29.0036 42.2678 29.5078C42.0594 30.0121 41.7539 30.4702 41.3688 30.8561C40.6913 31.536 39.7996 31.9595 38.8457 32.0545C37.8917 32.1495 36.9344 31.9101 36.1367 31.3771C35.339 30.8441 34.7502 30.0504 34.4705 29.1311C34.1908 28.2118 34.2375 27.2238 34.6027 26.3352L29.0107 20.7289L29.0102 35.4828C29.4156 35.6838 29.7858 35.9493 30.1065 36.2689C30.4916 36.6549 30.7971 37.1131 31.0055 37.6174C31.2139 38.1218 31.3212 38.6623 31.3212 39.2082C31.3212 39.7541 31.2139 40.2947 31.0055 40.799C30.7971 41.3034 30.4916 41.7616 30.1065 42.1476C28.4866 43.7716 25.8612 43.7716 24.2438 42.1476C23.7607 41.6635 23.4043 41.0672 23.2063 40.4118C23.0084 39.7563 22.9751 39.062 23.1094 38.3905C23.2437 37.719 23.5414 37.0912 23.976 36.5629C24.4106 36.0346 24.9687 35.6221 25.6007 35.3622V20.4708C25.0923 20.2626 24.6309 19.9541 24.2438 19.5635C23.017 18.3351 22.7219 16.5303 23.3506 15.0197L17.2172 8.86971L1.02108 25.1062C0.697433 25.4306 0.440705 25.8158 0.26555 26.2398C0.0903954 26.6637 0.000244141 27.118 0.000244141 27.5769C0.000244141 28.0358 0.0903954 28.4901 0.26555 28.914C0.440705 29.338 0.697433 29.7232 1.02108 30.0476L24.6425 53.7283C25.2959 54.3832 26.1821 54.7512 27.1061 54.7512C28.0301 54.7512 28.9163 54.3832 29.5698 53.7283L53.081 30.1581C53.7344 29.5026 54.1014 28.6138 54.1014 27.6871C54.1014 26.7604 53.7344 25.8716 53.081 25.2162Z" fill="#DE4C36"/>
</svg>
