<svg width="100" height="100" viewBox="0 0 100 100" fill="none" xmlns="http://www.w3.org/2000/svg">
<path d="M21.1719 0H25.6641V4.45312H29.8047V0H34.2969V13.4766H29.8047V8.98438H25.7031V13.4766H21.1719V0ZM40.2344 4.49219H36.2695V0H48.7109V4.49219H44.7266V13.4766H40.2344V4.49219ZM50.6836 0H55.3906L58.2812 4.74609L61.1719 0H65.8789V13.4766H61.3867V6.79688L58.2422 11.6406L55.0977 6.79688V13.4766H50.6836V0ZM68.1055 0H72.5977V9.02344H78.9648V13.4766H68.1055" fill="#FBFCD4"/>
<path d="M21.0156 91.9922L14.5703 19.6484H85.4297L78.9844 91.9531L49.9414 100" fill="#E44D26"/>
<path d="M50 93.8477V25.5859H78.9648L73.4375 87.3047" fill="#F16529"/>
<path d="M27.7344 34.4336H50V43.3008H37.4609L38.2812 52.3828H50V61.2305H30.1562L27.7344 34.4336ZM30.5469 65.6836H39.4531L40.0781 72.7734L50 75.4297V84.6875L31.7969 79.6094" fill="#EBEBEB"/>
<path d="M72.1875 34.4336H49.9609V43.3008H71.3672L72.1875 34.4336ZM70.5664 52.3828H49.9609V61.25H60.8984L59.8633 72.7734L49.9609 75.4297V84.6484L68.125 79.6094" fill="white"/>
</svg>
