<svg width="83" height="83" viewBox="0 0 83 83" fill="none" xmlns="http://www.w3.org/2000/svg">
<path d="M0 0H83V83H0V0Z" fill="#F7DF1E"/>
<path d="M21.8236 69.3607L28.175 65.5168C29.4006 67.6894 30.5152 69.5277 33.1891 69.5277C35.752 69.5277 37.3682 68.5252 37.3682 64.6255V38.1051H45.168V64.7357C45.168 72.8143 40.4324 76.4916 33.5233 76.4916C27.2837 76.4916 23.6619 73.2601 21.8232 69.3601L21.8236 69.3607ZM49.4045 68.5249L55.7553 64.8479C57.4273 67.5782 59.6002 69.5838 63.4442 69.5838C66.6763 69.5838 68.737 67.9679 68.737 65.7392C68.737 63.065 66.6199 62.1177 63.0541 60.5582L61.1046 59.7217C55.4771 57.3267 51.7444 54.3179 51.7444 47.9665C51.7444 42.1163 56.2015 37.6589 63.166 37.6589C68.1246 37.6589 71.6903 39.3864 74.253 43.8992L68.1797 47.7995C66.8423 45.4039 65.3943 44.4568 63.1657 44.4568C60.8812 44.4568 59.4326 45.9054 59.4326 47.7995C59.4326 50.1394 60.8812 51.0871 64.2239 52.5357L66.1738 53.3712C72.804 56.213 76.5368 59.1099 76.5368 65.628C76.5368 72.6486 71.0212 76.4926 63.6111 76.4926C56.3684 76.4926 51.6883 73.0383 49.4042 68.5252" fill="black"/>
</svg>
