<svg width="91" height="100" viewBox="0 0 91 100" fill="none" xmlns="http://www.w3.org/2000/svg">
<path d="M76.5148 49.5795C76.4006 49.6477 72.3338 48.9657 67.216 48.6247C63.0579 48.3519 58.1914 48.3519 54.2617 48.6247C51.0631 48.8293 46.8593 47.2381 46.3566 49.1476C44.4832 56.2856 40.4164 62.4915 35.2758 67.3108C31.3918 70.948 26.9594 73.6986 22.1616 75.4036C16.4498 72.4938 13.7538 65.9923 16.1756 60.3092C18.0948 55.7855 20.3566 50.8298 16.1985 49.6932C13.1826 48.8748 11.5148 51.7391 10.3725 54.808C8.15628 60.6957 3.92957 66.788 2.71867 74.0169C1.43924 81.6322 2.71867 89.725 9.34433 94.3169C24.789 104.956 41.5359 87.7245 59.1967 83.3826C65.5939 81.8141 72.6308 82.0642 78.274 78.8134C82.5008 76.3811 85.3109 72.3347 86.0877 67.7882C87.3672 60.4683 83.5517 53.2167 76.5148 49.5795Z" fill="#99425B"/>
<path d="M60.5219 20.7319L72.9279 45.9195L87.8013 2.27319H33.1968L48.0474 45.8286L60.5219 20.7319Z" fill="#99425B"/>
<path d="M45.4656 58.536C50.6264 58.536 54.81 54.3734 54.81 49.2385C54.81 44.1036 50.6264 39.9409 45.4656 39.9409C40.3048 39.9409 36.1211 44.1036 36.1211 49.2385C36.1211 54.3734 40.3048 58.536 45.4656 58.536Z" fill="#99425B"/>
<path d="M75.9436 58.536C81.1044 58.536 85.288 54.3734 85.288 49.2385C85.288 44.1036 81.1044 39.9409 75.9436 39.9409C70.7828 39.9409 66.5991 44.1036 66.5991 49.2385C66.5991 54.3734 70.7828 58.536 75.9436 58.536Z" fill="#99425B"/>
<path d="M14.8733 58.6042C20.0341 58.6042 24.2177 54.4415 24.2177 49.3066C24.2177 44.1717 20.0341 40.009 14.8733 40.009C9.71247 40.009 5.52881 44.1717 5.52881 49.3066C5.52881 54.4415 9.71247 58.6042 14.8733 58.6042Z" fill="#99425B"/>
</svg>
