<svg width="128" height="128" viewBox="0 0 128 128" fill="none" xmlns="http://www.w3.org/2000/svg">
<g clip-path="url(#clip0)">
<path d="M113.464 27.624C114.808 27.624 115.832 28.072 116.536 28.968C117.24 29.8 117.592 30.792 117.592 31.944C117.592 32.84 117.464 33.736 117.208 34.632C117.016 35.464 116.728 36.2 116.344 36.84C116.216 36.968 116.056 37 115.864 36.936C115.736 36.872 115.672 36.712 115.672 36.456C116.12 34.984 115.992 33.736 115.288 32.712C114.584 31.688 113.304 31.176 111.448 31.176C108.632 31.176 105.944 31.816 103.384 33.096C100.824 34.312 98.328 36.424 95.896 39.432C93.464 42.44 91.096 46.44 88.792 51.432C86.488 56.424 84.216 62.696 81.976 70.248C82.808 70.504 83.608 70.76 84.376 71.016C85.208 71.208 86.008 71.4 86.776 71.592C87.096 71.848 86.776 72.2 85.816 72.648C84.92 73.096 83.832 73.288 82.552 73.224C82.296 73.16 81.848 73 81.208 72.744C81.016 73.512 80.792 74.312 80.536 75.144C80.344 75.912 80.12 76.712 79.864 77.544C77.88 85.032 78.296 88.776 81.112 88.776C83.608 88.776 86.04 86.984 88.408 83.4C88.6 83.208 88.792 83.176 88.984 83.304C89.176 83.432 89.24 83.656 89.176 83.976C88.472 85.064 87.672 86.152 86.776 87.24C85.944 88.264 85.048 89.224 84.088 90.12C83.128 90.952 82.168 91.656 81.208 92.232C80.312 92.744 79.48 93 78.712 93C76.792 93 75.448 92.04 74.68 90.12C73.976 88.136 74.168 85.032 75.256 80.808C76.024 77.544 76.888 74.504 77.848 71.688C74.072 70.536 70.04 69.512 65.752 68.616C61.464 67.72 57.016 67.08 52.408 66.696C50.616 71.368 48.6 75.368 46.36 78.696C44.12 82.024 41.688 84.744 39.064 86.856C36.504 88.968 33.752 90.536 30.808 91.56C27.928 92.52 24.92 93 21.784 93C18.456 93 15.96 92.2 14.296 90.6C12.632 88.936 11.8 86.792 11.8 84.168C11.8 81.672 12.536 79.272 14.008 76.968C15.544 74.664 17.72 72.648 20.536 70.92C23.416 69.128 26.904 67.72 31 66.696C35.16 65.608 39.896 65.064 45.208 65.064C45.912 65.064 46.616 65.064 47.32 65.064C48.024 65.064 48.728 65.096 49.432 65.16C49.752 64.264 50.04 63.368 50.296 62.472C50.552 61.512 50.84 60.52 51.16 59.496C52.184 55.72 53.176 52.52 54.136 49.896C55.16 47.208 56.152 44.968 57.112 43.176C58.136 41.32 59.16 39.88 60.184 38.856C61.272 37.768 62.424 36.904 63.64 36.264C61.976 35.624 59.992 35.08 57.688 34.632C55.448 34.184 52.984 33.96 50.296 33.96C47.288 33.96 44.696 34.408 42.52 35.304C40.408 36.2 38.712 37.416 37.432 38.952C36.216 40.488 35.384 42.248 34.936 44.232C34.552 46.216 34.584 48.296 35.032 50.472C34.968 50.792 34.84 50.984 34.648 51.048C34.456 51.112 34.264 51.016 34.072 50.76C33.496 48.072 33.496 45.544 34.072 43.176C34.648 40.744 35.768 38.632 37.432 36.84C39.096 35.048 41.272 33.64 43.96 32.616C46.712 31.592 49.976 31.08 53.752 31.08C56.376 31.08 58.936 31.4 61.432 32.04C63.928 32.616 66.168 33.32 68.152 34.152C68.408 34.536 68.408 34.888 68.152 35.208C67.896 35.528 67.288 35.88 66.328 36.264C65.048 36.776 63.928 37.48 62.968 38.376C62.072 39.272 61.24 40.488 60.472 42.024C59.704 43.56 58.968 45.448 58.264 47.688C57.56 49.928 56.792 52.648 55.96 55.848C55.448 57.512 54.936 59.144 54.424 60.744C53.976 62.344 53.496 63.88 52.984 65.352C57.208 65.672 61.528 66.184 65.944 66.888C70.36 67.592 74.584 68.424 78.616 69.384C80.792 62.792 83.256 56.936 86.008 51.816C88.824 46.632 91.736 42.248 94.744 38.664C97.816 35.08 100.92 32.36 104.056 30.504C107.256 28.584 110.392 27.624 113.464 27.624ZM24.376 90.696C27.192 90.696 29.784 90.312 32.152 89.544C34.52 88.712 36.696 87.368 38.68 85.512C40.664 83.592 42.488 81.096 44.152 78.024C45.88 74.952 47.512 71.112 49.048 66.504C48.088 66.376 47.128 66.312 46.168 66.312C45.272 66.312 44.344 66.312 43.384 66.312C38.84 66.312 34.776 66.76 31.192 67.656C27.608 68.488 24.6 69.64 22.168 71.112C19.736 72.584 17.88 74.28 16.6 76.2C15.32 78.12 14.68 80.136 14.68 82.248C14.68 85 15.512 87.112 17.176 88.584C18.904 89.992 21.304 90.696 24.376 90.696Z" fill="#FFE600"/>
<path d="M115.464 29.624C116.808 29.624 117.832 30.072 118.536 30.968C119.24 31.8 119.592 32.792 119.592 33.944C119.592 34.84 119.464 35.736 119.208 36.632C119.016 37.464 118.728 38.2 118.344 38.84C118.216 38.968 118.056 39 117.864 38.936C117.736 38.872 117.672 38.712 117.672 38.456C118.12 36.984 117.992 35.736 117.288 34.712C116.584 33.688 115.304 33.176 113.448 33.176C110.632 33.176 107.944 33.816 105.384 35.096C102.824 36.312 100.328 38.424 97.896 41.432C95.464 44.44 93.096 48.44 90.792 53.432C88.488 58.424 86.216 64.696 83.976 72.248C84.808 72.504 85.608 72.76 86.376 73.016C87.208 73.208 88.008 73.4 88.776 73.592C89.096 73.848 88.776 74.2 87.816 74.648C86.92 75.096 85.832 75.288 84.552 75.224C84.296 75.16 83.848 75 83.208 74.744C83.016 75.512 82.792 76.312 82.536 77.144C82.344 77.912 82.12 78.712 81.864 79.544C79.88 87.032 80.296 90.776 83.112 90.776C85.608 90.776 88.04 88.984 90.408 85.4C90.6 85.208 90.792 85.176 90.984 85.304C91.176 85.432 91.24 85.656 91.176 85.976C90.472 87.064 89.672 88.152 88.776 89.24C87.944 90.264 87.048 91.224 86.088 92.12C85.128 92.952 84.168 93.656 83.208 94.232C82.312 94.744 81.48 95 80.712 95C78.792 95 77.448 94.04 76.68 92.12C75.976 90.136 76.168 87.032 77.256 82.808C78.024 79.544 78.888 76.504 79.848 73.688C76.072 72.536 72.04 71.512 67.752 70.616C63.464 69.72 59.016 69.08 54.408 68.696C52.616 73.368 50.6 77.368 48.36 80.696C46.12 84.024 43.688 86.744 41.064 88.856C38.504 90.968 35.752 92.536 32.808 93.56C29.928 94.52 26.92 95 23.784 95C20.456 95 17.96 94.2 16.296 92.6C14.632 90.936 13.8 88.792 13.8 86.168C13.8 83.672 14.536 81.272 16.008 78.968C17.544 76.664 19.72 74.648 22.536 72.92C25.416 71.128 28.904 69.72 33 68.696C37.16 67.608 41.896 67.064 47.208 67.064C47.912 67.064 48.616 67.064 49.32 67.064C50.024 67.064 50.728 67.096 51.432 67.16C51.752 66.264 52.04 65.368 52.296 64.472C52.552 63.512 52.84 62.52 53.16 61.496C54.184 57.72 55.176 54.52 56.136 51.896C57.16 49.208 58.152 46.968 59.112 45.176C60.136 43.32 61.16 41.88 62.184 40.856C63.272 39.768 64.424 38.904 65.64 38.264C63.976 37.624 61.992 37.08 59.688 36.632C57.448 36.184 54.984 35.96 52.296 35.96C49.288 35.96 46.696 36.408 44.52 37.304C42.408 38.2 40.712 39.416 39.432 40.952C38.216 42.488 37.384 44.248 36.936 46.232C36.552 48.216 36.584 50.296 37.032 52.472C36.968 52.792 36.84 52.984 36.648 53.048C36.456 53.112 36.264 53.016 36.072 52.76C35.496 50.072 35.496 47.544 36.072 45.176C36.648 42.744 37.768 40.632 39.432 38.84C41.096 37.048 43.272 35.64 45.96 34.616C48.712 33.592 51.976 33.08 55.752 33.08C58.376 33.08 60.936 33.4 63.432 34.04C65.928 34.616 68.168 35.32 70.152 36.152C70.408 36.536 70.408 36.888 70.152 37.208C69.896 37.528 69.288 37.88 68.328 38.264C67.048 38.776 65.928 39.48 64.968 40.376C64.072 41.272 63.24 42.488 62.472 44.024C61.704 45.56 60.968 47.448 60.264 49.688C59.56 51.928 58.792 54.648 57.96 57.848C57.448 59.512 56.936 61.144 56.424 62.744C55.976 64.344 55.496 65.88 54.984 67.352C59.208 67.672 63.528 68.184 67.944 68.888C72.36 69.592 76.584 70.424 80.616 71.384C82.792 64.792 85.256 58.936 88.008 53.816C90.824 48.632 93.736 44.248 96.744 40.664C99.816 37.08 102.92 34.36 106.056 32.504C109.256 30.584 112.392 29.624 115.464 29.624ZM26.376 92.696C29.192 92.696 31.784 92.312 34.152 91.544C36.52 90.712 38.696 89.368 40.68 87.512C42.664 85.592 44.488 83.096 46.152 80.024C47.88 76.952 49.512 73.112 51.048 68.504C50.088 68.376 49.128 68.312 48.168 68.312C47.272 68.312 46.344 68.312 45.384 68.312C40.84 68.312 36.776 68.76 33.192 69.656C29.608 70.488 26.6 71.64 24.168 73.112C21.736 74.584 19.88 76.28 18.6 78.2C17.32 80.12 16.68 82.136 16.68 84.248C16.68 87 17.512 89.112 19.176 90.584C20.904 91.992 23.304 92.696 26.376 92.696Z" fill="#FFE600"/>
</g>
<defs>
<clipPath id="clip0">
<rect width="128" height="128" fill="white"/>
</clipPath>
</defs>
</svg>
