<svg width="115" height="131" viewBox="0 0 115 131" fill="none" xmlns="http://www.w3.org/2000/svg">
<path d="M115 65.5117C115 57.8957 105.46 50.6781 90.8327 46.2023C94.2081 31.2985 92.7079 19.4411 86.0976 15.6448C84.574 14.7543 82.7925 14.3325 80.8469 14.3325V19.5582C81.9252 19.5582 82.7925 19.7691 83.5192 20.1675C86.7071 21.9953 88.0901 28.9551 87.0118 37.9068C86.754 40.1096 86.332 42.4295 85.8163 44.7963C81.222 43.6715 76.2057 42.8044 70.9315 42.242C67.767 37.9068 64.4853 33.9699 61.1802 30.5252C68.8219 23.4248 75.9947 19.5348 80.8704 19.5348V14.3091C74.4242 14.3091 65.9855 18.9021 57.4531 26.8695C48.9207 18.949 40.4821 14.4028 34.0359 14.4028V19.6285C38.8881 19.6285 46.0844 23.4951 53.7261 30.5486C50.4444 33.9934 47.1627 37.9068 44.0451 42.242C38.7475 42.8044 33.7311 43.6715 29.1368 44.8197C28.5976 42.4764 28.1991 40.2033 27.9179 38.024C26.8161 29.0723 28.1757 22.1125 31.3402 20.2612C32.0434 19.8394 32.9576 19.652 34.0359 19.652V14.4263C32.0669 14.4263 30.2854 14.8481 28.7383 15.7385C22.1514 19.5348 20.6747 31.3688 24.0736 46.2257C9.49348 50.725 0 57.9191 0 65.5117C0 73.1276 9.54036 80.3452 24.1673 84.821C20.7919 99.7248 22.2921 111.582 28.9024 115.379C30.426 116.269 32.2075 116.691 34.1765 116.691C40.6227 116.691 49.0614 112.098 57.5938 104.13C66.1262 112.051 74.5648 116.597 81.011 116.597C82.98 116.597 84.7615 116.175 86.3086 115.285C92.8954 111.489 94.3722 99.6545 90.9733 84.7976C105.507 80.3217 115 73.1042 115 65.5117ZM84.4802 49.8814C83.6129 52.9043 82.5346 56.021 81.3157 59.1377C80.3547 57.263 79.3467 55.3883 78.245 53.5136C77.1667 51.6389 76.0182 49.8111 74.8696 48.0301C78.1981 48.5222 81.4095 49.1315 84.4802 49.8814ZM73.7444 74.8382C71.916 78.0018 70.0408 81.0013 68.0952 83.7899C64.6025 84.0946 61.063 84.2586 57.5 84.2586C53.9605 84.2586 50.4209 84.0946 46.9517 83.8133C45.0061 81.0247 43.1074 78.0487 41.279 74.9086C39.4976 71.8387 37.8801 68.7221 36.4034 65.582C37.8567 62.4418 39.4976 59.3017 41.2556 56.2319C43.084 53.0684 44.9592 50.0689 46.9048 47.2803C50.3975 46.9756 53.937 46.8116 57.5 46.8116C61.0395 46.8116 64.5791 46.9756 68.0483 47.2568C69.9939 50.0454 71.8926 53.0215 73.721 56.1616C75.5024 59.2314 77.1199 62.3481 78.5966 65.4882C77.1199 68.6283 75.5024 71.7684 73.7444 74.8382ZM81.3157 71.7919C82.5815 74.932 83.6598 78.0721 84.5506 81.1185C81.4798 81.8684 78.245 82.5011 74.893 82.9932C76.0416 81.1888 77.1902 79.3375 78.2685 77.4394C79.3467 75.5647 80.3547 73.6666 81.3157 71.7919ZM57.5469 96.7956C55.3669 94.546 53.1869 92.0386 51.0304 89.2968C53.14 89.3906 55.2966 89.4609 57.4766 89.4609C59.68 89.4609 61.86 89.414 63.9931 89.2968C61.8834 92.0386 59.7034 94.546 57.5469 96.7956ZM40.107 82.9932C36.7784 82.5011 33.5671 81.8918 30.4963 81.1419C31.3636 78.119 32.4419 75.0023 33.6608 71.8856C34.6219 73.7603 35.6298 75.635 36.7316 77.5097C37.8333 79.3844 38.9584 81.2122 40.107 82.9932ZM57.4297 34.2277C59.6097 36.4773 61.7896 38.9847 63.9462 41.7265C61.8365 41.6327 59.68 41.5624 57.5 41.5624C55.2966 41.5624 53.1166 41.6093 50.9835 41.7265C53.0932 38.9847 55.2731 36.4773 57.4297 34.2277ZM40.0836 48.0301C38.935 49.8345 37.7864 51.6858 36.7081 53.5839C35.6298 55.4586 34.6219 57.3333 33.6608 59.208C32.395 56.0679 31.3168 52.9278 30.426 49.8814C33.4967 49.1549 36.7316 48.5222 40.0836 48.0301ZM18.8698 77.3691C10.5718 73.8306 5.20383 69.1907 5.20383 65.5117C5.20383 61.8326 10.5718 57.1693 18.8698 53.6542C20.8857 52.7872 23.0891 52.0139 25.3628 51.2874C26.6989 55.8804 28.457 60.6609 30.637 65.5585C28.4804 70.4327 26.7458 75.1898 25.4331 79.7593C23.1125 79.0329 20.9091 78.2361 18.8698 77.3691ZM31.4808 110.856C28.2929 109.028 26.9099 102.068 27.9882 93.1165C28.246 90.9137 28.668 88.5938 29.1837 86.227C33.778 87.3518 38.7943 88.2189 44.0685 88.7813C47.233 93.1165 50.5147 97.0534 53.8198 100.498C46.1782 107.599 39.0053 111.489 34.1296 111.489C33.0748 111.465 32.1841 111.254 31.4808 110.856ZM87.0821 92.9993C88.1839 101.951 86.8243 108.911 83.6598 110.762C82.9566 111.184 82.0424 111.371 80.9641 111.371C76.1119 111.371 68.9156 107.505 61.274 100.451C64.5557 97.0065 67.8373 93.0931 70.955 88.7579C76.2526 88.1954 81.2689 87.3284 85.8632 86.1802C86.4024 88.547 86.8243 90.82 87.0821 92.9993ZM96.1068 77.3691C94.0909 78.2361 91.8875 79.0094 89.6137 79.7359C88.2776 75.1429 86.5196 70.3624 84.3396 65.4648C86.4961 60.5906 88.2307 55.8335 89.5434 51.264C91.864 51.9904 94.0675 52.7872 96.1302 53.6542C104.428 57.1927 109.796 61.8326 109.796 65.5117C109.773 69.1907 104.405 73.854 96.1068 77.3691Z" fill="#61DAFB"/>
<path d="M57.4766 76.2209C63.3929 76.2209 68.189 71.4262 68.189 65.5117C68.189 59.5972 63.3929 54.8025 57.4766 54.8025C51.5603 54.8025 46.7642 59.5972 46.7642 65.5117C46.7642 71.4262 51.5603 76.2209 57.4766 76.2209Z" fill="#61DAFB"/>
</svg>
